<svg id="Layer_1" data-name="Layer 1" xmlns="http://www.w3.org/2000/svg" xmlns:xlink="http://www.w3.org/1999/xlink" viewBox="0 0 120 120"><defs><style>.cls-1{fill:#fff;}.cls-2{fill:url(#linear-gradient);}.cls-3{fill:url(#linear-gradient-2);}</style><linearGradient id="linear-gradient" x1="106.72" y1="52.72" x2="95.41" y2="52.72" gradientTransform="matrix(1, 0, 0, -1, 0, 120)" gradientUnits="userSpaceOnUse"><stop offset="0.01" stop-color="#74cfe4"/><stop offset="0.5" stop-color="#04b5a8"/><stop offset="1" stop-color="#01a185"/></linearGradient><linearGradient id="linear-gradient-2" x1="95.41" y1="61.82" x2="21.32" y2="61.82" xlink:href="#linear-gradient"/></defs><title>MAZENIS</title><rect class="cls-1" width="120" height="120" rx="26.52" ry="26.52"/><polygon class="cls-2" points="106.72 53.66 106.72 80.89 95.41 74.36 95.41 60.18 106.72 53.66"/><path class="cls-3" d="M90.86,44.6H86.39l.29-.23a16.33,16.33,0,1,0-21.05,0,2,2,0,0,0,.28.23H52.24l.28-.23a16.29,16.29,0,1,0-23-1.9,17.13,17.13,0,0,0,1.91,1.9l.28.23H25.86a4.55,4.55,0,0,0-4.54,4.55v51.57h5a6.18,6.18,0,0,0,6.35-6h0v-7.3H90.86a4.55,4.55,0,0,0,4.55-4.54h0V49.15a4.55,4.55,0,0,0-4.55-4.55ZM80.87,20a7.28,7.28,0,0,1,1.79.24c4.47,1.24,8,6.41,8,11.76a15.1,15.1,0,0,1-5.78,11.39A15.42,15.42,0,0,1,83,44.6H73.43a7.45,7.45,0,0,1-.36-.93c-.68-2.2-1-6-1-11.71S74.81,20,80.87,20ZM33.4,71a2.3,2.3,0,1,1,2.3-2.3A2.29,2.29,0,0,1,33.4,71Zm0-6.79a2.31,2.31,0,1,1,2.3-2.32v0a2.3,2.3,0,0,1-2.3,2.3Zm0-6.8a2.3,2.3,0,1,1,2.3-2.3,2.29,2.29,0,0,1-2.3,2.3Zm5.51-13.77c-.69-2.21-1-6-1-11.7s2.8-12,8.81-12a7.29,7.29,0,0,1,1.8.24c4.48,1.24,8,6.41,8,11.76a15.09,15.09,0,0,1-5.79,11.39A17,17,0,0,1,48.9,44.6H39.27A7.45,7.45,0,0,1,38.91,43.67ZM87.11,69a1.87,1.87,0,0,1-1.87,1.87H43.58A1.87,1.87,0,0,1,41.71,69v-.69a1.87,1.87,0,0,1,1.87-1.87H85.22a1.87,1.87,0,0,1,1.87,1.87Zm0-6.74a1.87,1.87,0,0,1-1.87,1.86H43.58a1.87,1.87,0,0,1-1.87-1.86v-.69a1.87,1.87,0,0,1,1.87-1.86H85.22a1.87,1.87,0,0,1,1.87,1.86Zm0-6.74a1.87,1.87,0,0,1-1.87,1.87H43.58a1.87,1.87,0,0,1-1.87-1.87v-.69A1.87,1.87,0,0,1,43.58,53H85.22a1.87,1.87,0,0,1,1.87,1.87Z"/></svg>