<svg id="Layer_1" data-name="Layer 1" xmlns="http://www.w3.org/2000/svg" viewBox="0 0 200 120"><defs><style>.cls-1{fill:#231f20;}</style></defs><title>miled22</title><path class="cls-1" d="M67.86,31.56a79.34,79.34,0,0,1-9.33,14.05,126.72,126.72,0,0,1-11.3,12.61l-1.35,3.91a68.21,68.21,0,0,0-2,7.21,27.26,27.26,0,0,0-.85,6c0,1.7.63,2.55,1.87,2.55s2.73-.71,4.46-2.13a23.83,23.83,0,0,0,3.78-3.69q1.18-1.57,2.76-4.12c1-1.69,2-3.16,2.71-4.41A7.58,7.58,0,0,1,60,61.7c.34,0,.51.53.51,1.57a6,6,0,0,1-.85,3,75.61,75.61,0,0,1-7.56,11.12q-5.85,6.45-12,6.45-4.76,0-4.76-6.45T41,55.16c.28-.9.94-2.8,1.95-5.68s1.9-5.14,2.64-6.75,1.72-3.75,3-6.41A38.72,38.72,0,0,1,52.12,30c1.16-1.58,2.44-3.2,3.86-4.84q4.16-4.92,9-4.92c3.22,0,4.84,1.47,4.84,4.41A14.33,14.33,0,0,1,67.86,31.56Zm-1.78-9.25h-.59q-5.19,0-16.56,31.07Q60.57,39.72,64.81,31c1.58-3.57,2.38-5.9,2.38-7S66.82,22.31,66.08,22.31Z"/><path class="cls-1" d="M69.31,49.39l4.24.09h.85Q73,50.5,70.79,55c-1.5,3-2.62,5.27-3.35,6.8A66.51,66.51,0,0,0,64.93,68a20,20,0,0,0-1.4,6.37q0,2.46,1.62,2.46a6,6,0,0,0,3.1-1.48,16.61,16.61,0,0,0,3.26-3.14q1.27-1.66,2.85-4.21c1-1.69,2-3.16,2.71-4.41a7.91,7.91,0,0,1,1.32-1.87c.34,0,.51.53.51,1.57a5.86,5.86,0,0,1-.85,3q-3.14,5.26-5.73,8.78a32.27,32.27,0,0,1-5.9,6.16q-3.32,2.63-6,2.63-4.76,0-4.75-6.62,0-10.27,7-22.75C64.67,51.09,66.87,49.39,69.31,49.39Zm11.54-11.2h-.34a4.82,4.82,0,0,0-3.27,1.44,9.34,9.34,0,0,0-2.25,3,3.07,3.07,0,0,1-2.2-3.06,6.74,6.74,0,0,1,2-4.45q2-2.25,3.91-2.25a4,4,0,0,1,2.8.85,2.79,2.79,0,0,1,.94,2.16A2.85,2.85,0,0,1,80.85,38.19Z"/><path class="cls-1" d="M110.23,66.12q-6.37,10.6-11.55,14.77T85.27,85.05a16,16,0,0,1-8-1.83,5.82,5.82,0,0,1-3.23-5.39,6.37,6.37,0,0,1,1.19-3.73,3.76,3.76,0,0,1,3.27-1.7,2.54,2.54,0,0,1,2.67,1.53,5.13,5.13,0,0,0-1.61,3.73q0,4.25,4.75,4.25a6.89,6.89,0,0,0,4.88-2,5.82,5.82,0,0,0,2.08-4.29,8.14,8.14,0,0,0-1-4.12,13.14,13.14,0,0,0-2.47-3.14l-2.88-2.72a10.22,10.22,0,0,1-3.48-7.6,9.33,9.33,0,0,1,3.26-7.21c2.18-2,5.17-2.93,9-2.93a13,13,0,0,1,6,1.27,4.18,4.18,0,0,1,2.46,4,7.07,7.07,0,0,1-1.61,4.63,5.39,5.39,0,0,1-4.37,2q-2.76,0-2.76-2.55c0-.39.65-1,2-1.78s1.95-1.61,1.95-2.46a2.07,2.07,0,0,0-1.06-1.91,5.83,5.83,0,0,0-3-.64,6.22,6.22,0,0,0-3.78,1.36,4.22,4.22,0,0,0-1.83,3.56,6,6,0,0,0,1.87,4.16,20.33,20.33,0,0,0,4.08,3.32,15.25,15.25,0,0,1,4.07,3.77,8.2,8.2,0,0,1,1.87,5.1,9.36,9.36,0,0,1-1.23,4.79,11.16,11.16,0,0,1-2.93,3.4q4.75-2,10.1-10.19c.34-.45.94-1.38,1.79-2.8q3-5.35,3.31-5.35c.34,0,.51.53.51,1.57A6,6,0,0,1,110.23,66.12Z"/><path class="cls-1" d="M133.4,34.7q-4.16,2.89-9.34,14.78h8.58l.08.08c0,.29-.31.78-.93,1.49s-1.16,1.06-1.61,1.06h-7.3q-6.72,16.64-6.71,21.39c0,2.15.68,3.23,2,3.23q3,0,7-5.1a28.33,28.33,0,0,0,2.46-3.73,70.27,70.27,0,0,1,4.08-6.28c.33,0,.5.45.5,1.36q-.08,3.23-7,12.56a32.84,32.84,0,0,1-5.52,5.69c-2.15,1.75-4.11,2.63-5.86,2.63-3.22,0-4.84-2.26-4.84-6.79A38.66,38.66,0,0,1,111.67,64v-.08a32.74,32.74,0,0,1-2.76,4.41c-.76,1-1.2,1.45-1.32,1.45s-.33-.36-.33-1.06a9.39,9.39,0,0,1,1.14-3.44c.77-1.59,1.81-3.65,3.14-6.2s2.42-4.87,3.27-7h-5.69c-.17,0-.25-.13-.25-.38a3,3,0,0,1,.63-1.32c.43-.62.75-.93,1-.93h6.45q6.12-14.68,12.4-14.69C131.76,34.79,133.12,34.76,133.4,34.7Z"/><path class="cls-1" d="M162.52,50.24H166q-2.62,1.62-5.34,8-2.22,5.36-3.74,9.72t-1.87,5.31c-.22.62-.75,2.13-1.57,4.54s-1.48,4.26-2,5.56a32.48,32.48,0,0,1-4.93,9.42,20.65,20.65,0,0,1-7,5.56,18.56,18.56,0,0,1-8.4,2.09,14.92,14.92,0,0,1-7.26-1.66,5.54,5.54,0,0,1-3-5.22,5.33,5.33,0,0,1,1.15-3.36,3.28,3.28,0,0,1,2.63-1.48,4.38,4.38,0,0,1,2.51.68,4.07,4.07,0,0,1,1.44,1.53c-1,.34-1.53,1.52-1.53,3.56a3.21,3.21,0,0,0,1.15,2.59,4.36,4.36,0,0,0,2.93,1q6.87,0,11.54-12.31l4.84-12.91a56.44,56.44,0,0,1-6.92,7.52,15.06,15.06,0,0,1-4.58,3,13.39,13.39,0,0,1-3.91.51A4.3,4.3,0,0,1,128.56,82a8.73,8.73,0,0,1-1.31-5.35,39.19,39.19,0,0,1,2-10.06,43,43,0,0,1,4.41-10.36q2.42-3.83,5-4.93a18.61,18.61,0,0,1,7.09-1.1.3.3,0,0,1,.34.34,1.38,1.38,0,0,1-.51.85q-3.48,3.06-7.09,11t-3.61,13.33c0,1.92.54,2.89,1.61,2.89q3.06,0,7.81-6.12a53.73,53.73,0,0,0,7.31-12.22c.22-.57.55-1.39,1-2.46s.72-1.81.89-2.21.44-1,.81-1.66a5.44,5.44,0,0,1,1-1.44c.28-.25.66-.58,1.14-1a3.59,3.59,0,0,1,1.49-.76A22.67,22.67,0,0,1,162.52,50.24Z"/></svg>